<?xml version="1.0" encoding="UTF-8" standalone="no"?><svg xmlns="http://www.w3.org/2000/svg" xmlns:xlink="http://www.w3.org/1999/xlink" contentStyleType="text/css" height="1706px" preserveAspectRatio="none" style="width:1832px;height:1706px;background:#FFFFFF;" version="1.1" viewBox="0 0 1832 1706" width="1832px" zoomAndPan="magnify"><defs/><g><text fill="#000000" font-family="sans-serif" font-size="14" font-weight="bold" lengthAdjust="spacing" textLength="243" x="787.9964" y="22.9951">Diagrama UML de Quimbamba</text><!--MD5=[7b487eea5c99cf636fbb0d1d31e7c2b5]
class Ajustes--><g id="elem_Ajustes"><rect codeLine="2" fill="#90EE90" height="227.2656" id="Ajustes" rx="2.5" ry="2.5" style="stroke:#006400;stroke-width:0.5;" width="172" x="638.9948" y="1314.2969"/><ellipse cx="694.7448" cy="1330.2969" fill="#ADD1B2" rx="11" ry="11" style="stroke:#181818;stroke-width:1.0;"/><path d="M697.0885,1325.9688 C696.151,1325.5313 695.5573,1325.3906 694.6823,1325.3906 C692.0573,1325.3906 690.0573,1327.4688 690.0573,1330.1875 L690.0573,1331.3125 C690.0573,1333.8906 692.1667,1335.7813 695.0573,1335.7813 C696.276,1335.7813 697.4323,1335.4844 698.1823,1334.9375 C698.7604,1334.5313 699.0885,1334.0781 699.0885,1333.6875 C699.0885,1333.2344 698.6979,1332.8438 698.2292,1332.8438 C698.0104,1332.8438 697.8073,1332.9219 697.6198,1333.1094 C697.1667,1333.5938 697.1667,1333.5938 696.9792,1333.6875 C696.5573,1333.9531 695.8698,1334.0781 695.1042,1334.0781 C693.0573,1334.0781 691.7604,1332.9844 691.7604,1331.2813 L691.7604,1330.1875 C691.7604,1328.4063 693.0104,1327.0938 694.7448,1327.0938 C695.3229,1327.0938 695.9323,1327.25 696.401,1327.5 C696.8854,1327.7813 697.0573,1328 697.151,1328.4063 C697.2135,1328.8125 697.2448,1328.9375 697.3854,1329.0625 C697.526,1329.2031 697.7604,1329.3125 697.9792,1329.3125 C698.2448,1329.3125 698.5104,1329.1719 698.6823,1328.9531 C698.7917,1328.7969 698.8229,1328.6094 698.8229,1328.1875 L698.8229,1326.7656 C698.8229,1326.3281 698.8073,1326.2031 698.7135,1326.0469 C698.5573,1325.7813 698.276,1325.6406 697.9792,1325.6406 C697.6823,1325.6406 697.4792,1325.7344 697.2604,1326.0469 L697.0885,1325.9688 Z " fill="#000000"/><text fill="#000000" font-family="sans-serif" font-size="14" lengthAdjust="spacing" textLength="52" x="715.2448" y="1335.1436">Ajustes</text><line style="stroke:#006400;stroke-width:0.5;" x1="639.9948" x2="809.9948" y1="1346.2969" y2="1346.2969"/><text fill="#000000" font-family="sans-serif" font-size="14" lengthAdjust="spacing" textLength="65" x="644.9948" y="1363.292">Largo:int</text><text fill="#000000" font-family="sans-serif" font-size="14" lengthAdjust="spacing" textLength="70" x="644.9948" y="1379.5889">Ancho:int</text><text fill="#000000" font-family="sans-serif" font-size="14" lengthAdjust="spacing" textLength="51" x="644.9948" y="1395.8857">FPS:int</text><text fill="#000000" font-family="sans-serif" font-size="14" lengthAdjust="spacing" textLength="87" x="644.9948" y="1412.1826">TILESIZE:int</text><text fill="#000000" font-family="sans-serif" font-size="14" lengthAdjust="spacing" textLength="95" x="644.9948" y="1428.4795">alturavida:int</text><text fill="#000000" font-family="sans-serif" font-size="14" lengthAdjust="spacing" textLength="97" x="644.9948" y="1444.7764">anchovida:int</text><text fill="#000000" font-family="sans-serif" font-size="14" lengthAdjust="spacing" textLength="160" x="644.9948" y="1461.0732">anchobarraenergia:int</text><text fill="#000000" font-family="sans-serif" font-size="14" lengthAdjust="spacing" textLength="137" x="644.9948" y="1477.3701">tamañocorazon:int</text><text fill="#000000" font-family="sans-serif" font-size="14" lengthAdjust="spacing" textLength="93" x="644.9948" y="1493.667">ubicacion:str</text><text fill="#000000" font-family="sans-serif" font-size="14" lengthAdjust="spacing" textLength="128" x="644.9948" y="1509.9639">tamañofuente:int</text><text fill="#000000" font-family="sans-serif" font-size="14" lengthAdjust="spacing" textLength="117" x="644.9948" y="1526.2607">WORLD_MAP:str</text><line style="stroke:#006400;stroke-width:0.5;" x1="639.9948" x2="809.9948" y1="1533.5625" y2="1533.5625"/></g><!--MD5=[6d39b3c15bac3854dcada01730695b9b]
class Armas--><g id="elem_Armas"><rect codeLine="16" fill="#90EE90" height="96.8906" id="Armas" rx="2.5" ry="2.5" style="stroke:#006400;stroke-width:0.5;" width="100" x="571.9948" y="405.7969"/><ellipse cx="597.3448" cy="421.7969" fill="#ADD1B2" rx="11" ry="11" style="stroke:#181818;stroke-width:1.0;"/><path d="M599.6886,417.4688 C598.7511,417.0313 598.1573,416.8906 597.2823,416.8906 C594.6573,416.8906 592.6573,418.9688 592.6573,421.6875 L592.6573,422.8125 C592.6573,425.3906 594.7667,427.2813 597.6573,427.2813 C598.8761,427.2813 600.0323,426.9844 600.7823,426.4375 C601.3604,426.0313 601.6886,425.5781 601.6886,425.1875 C601.6886,424.7344 601.2979,424.3438 600.8292,424.3438 C600.6104,424.3438 600.4073,424.4219 600.2198,424.6094 C599.7667,425.0938 599.7667,425.0938 599.5792,425.1875 C599.1573,425.4531 598.4698,425.5781 597.7042,425.5781 C595.6573,425.5781 594.3604,424.4844 594.3604,422.7813 L594.3604,421.6875 C594.3604,419.9063 595.6104,418.5938 597.3448,418.5938 C597.9229,418.5938 598.5323,418.75 599.0011,419 C599.4854,419.2813 599.6573,419.5 599.7511,419.9063 C599.8136,420.3125 599.8448,420.4375 599.9854,420.5625 C600.1261,420.7031 600.3604,420.8125 600.5792,420.8125 C600.8448,420.8125 601.1104,420.6719 601.2823,420.4531 C601.3917,420.2969 601.4229,420.1094 601.4229,419.6875 L601.4229,418.2656 C601.4229,417.8281 601.4073,417.7031 601.3136,417.5469 C601.1573,417.2813 600.8761,417.1406 600.5792,417.1406 C600.2823,417.1406 600.0792,417.2344 599.8604,417.5469 L599.6886,417.4688 Z " fill="#000000"/><text fill="#000000" font-family="sans-serif" font-size="14" lengthAdjust="spacing" textLength="45" x="613.6448" y="426.6436">Armas</text><line style="stroke:#006400;stroke-width:0.5;" x1="572.9948" x2="670.9948" y1="437.7969" y2="437.7969"/><text fill="#000000" font-family="sans-serif" font-size="14" lengthAdjust="spacing" textLength="78" x="577.9948" y="454.792">jugador:int</text><text fill="#000000" font-family="sans-serif" font-size="14" lengthAdjust="spacing" textLength="69" x="577.9948" y="471.0889">image:str</text><text fill="#000000" font-family="sans-serif" font-size="14" lengthAdjust="spacing" textLength="88" x="577.9948" y="487.3857">grupos:float</text><line style="stroke:#006400;stroke-width:0.5;" x1="572.9948" x2="670.9948" y1="494.6875" y2="494.6875"/></g><!--MD5=[8eea69959b7153fc351f8ad0eee40ee0]
class Debug--><g id="elem_Debug"><rect codeLine="22" fill="#90EE90" height="80.5938" id="Debug" rx="2.5" ry="2.5" style="stroke:#006400;stroke-width:0.5;" width="169" x="819.4948" y="597.2969"/><ellipse cx="876.2448" cy="613.2969" fill="#ADD1B2" rx="11" ry="11" style="stroke:#181818;stroke-width:1.0;"/><path d="M878.5885,608.9688 C877.651,608.5313 877.0573,608.3906 876.1823,608.3906 C873.5573,608.3906 871.5573,610.4688 871.5573,613.1875 L871.5573,614.3125 C871.5573,616.8906 873.6667,618.7813 876.5573,618.7813 C877.776,618.7813 878.9323,618.4844 879.6823,617.9375 C880.2604,617.5313 880.5885,617.0781 880.5885,616.6875 C880.5885,616.2344 880.1979,615.8438 879.7292,615.8438 C879.5104,615.8438 879.3073,615.9219 879.1198,616.1094 C878.6667,616.5938 878.6667,616.5938 878.4792,616.6875 C878.0573,616.9531 877.3698,617.0781 876.6042,617.0781 C874.5573,617.0781 873.2604,615.9844 873.2604,614.2813 L873.2604,613.1875 C873.2604,611.4063 874.5104,610.0938 876.2448,610.0938 C876.8229,610.0938 877.4323,610.25 877.901,610.5 C878.3854,610.7813 878.5573,611 878.651,611.4063 C878.7135,611.8125 878.7448,611.9375 878.8854,612.0625 C879.026,612.2031 879.2604,612.3125 879.4792,612.3125 C879.7448,612.3125 880.0104,612.1719 880.1823,611.9531 C880.2917,611.7969 880.3229,611.6094 880.3229,611.1875 L880.3229,609.7656 C880.3229,609.3281 880.3073,609.2031 880.2135,609.0469 C880.0573,608.7813 879.776,608.6406 879.4792,608.6406 C879.1823,608.6406 878.9792,608.7344 878.7604,609.0469 L878.5885,608.9688 Z " fill="#000000"/><text fill="#000000" font-family="sans-serif" font-size="14" lengthAdjust="spacing" textLength="47" x="896.7448" y="618.1436">Debug</text><line style="stroke:#006400;stroke-width:0.5;" x1="820.4948" x2="987.4948" y1="629.2969" y2="629.2969"/><text fill="#000000" font-family="sans-serif" font-size="14" lengthAdjust="spacing" textLength="56" x="825.4948" y="646.292">font:str</text><line style="stroke:#006400;stroke-width:0.5;" x1="820.4948" x2="987.4948" y1="653.5938" y2="653.5938"/><text fill="#000000" font-family="sans-serif" font-size="14" lengthAdjust="spacing" textLength="157" x="825.4948" y="670.5889">debug(info,y:int,x:int)</text></g><!--MD5=[dfb020a4462010fec5bc91db4c0dd7e0]
class Enemigos--><g id="elem_Enemigos"><rect codeLine="27" fill="#90EE90" height="520.6094" id="Enemigos" rx="2.5" ry="2.5" style="stroke:#006400;stroke-width:0.5;" width="284" x="160.9946" y="732.2969"/><ellipse cx="263.7446" cy="748.2969" fill="#ADD1B2" rx="11" ry="11" style="stroke:#181818;stroke-width:1.0;"/><path d="M266.0884,743.9688 C265.1509,743.5313 264.5571,743.3906 263.6821,743.3906 C261.0571,743.3906 259.0571,745.4688 259.0571,748.1875 L259.0571,749.3125 C259.0571,751.8906 261.1665,753.7813 264.0571,753.7813 C265.2759,753.7813 266.4321,753.4844 267.1821,752.9375 C267.7602,752.5313 268.0884,752.0781 268.0884,751.6875 C268.0884,751.2344 267.6977,750.8438 267.229,750.8438 C267.0102,750.8438 266.8071,750.9219 266.6196,751.1094 C266.1665,751.5938 266.1665,751.5938 265.979,751.6875 C265.5571,751.9531 264.8696,752.0781 264.104,752.0781 C262.0571,752.0781 260.7602,750.9844 260.7602,749.2813 L260.7602,748.1875 C260.7602,746.4063 262.0102,745.0938 263.7446,745.0938 C264.3227,745.0938 264.9321,745.25 265.4009,745.5 C265.8852,745.7813 266.0571,746 266.1509,746.4063 C266.2134,746.8125 266.2446,746.9375 266.3852,747.0625 C266.5259,747.2031 266.7602,747.3125 266.979,747.3125 C267.2446,747.3125 267.5102,747.1719 267.6821,746.9531 C267.7915,746.7969 267.8227,746.6094 267.8227,746.1875 L267.8227,744.7656 C267.8227,744.3281 267.8071,744.2031 267.7134,744.0469 C267.5571,743.7813 267.2759,743.6406 266.979,743.6406 C266.6821,743.6406 266.479,743.7344 266.2602,744.0469 L266.0884,743.9688 Z " fill="#000000"/><text fill="#000000" font-family="sans-serif" font-size="14" lengthAdjust="spacing" textLength="70" x="284.2446" y="753.1436">Enemigos</text><line style="stroke:#006400;stroke-width:0.5;" x1="161.9946" x2="443.9946" y1="764.2969" y2="764.2969"/><text fill="#000000" font-family="sans-serif" font-size="14" lengthAdjust="spacing" textLength="122" x="166.9946" y="781.292">nombremoustro:</text><text fill="#000000" font-family="sans-serif" font-size="14" lengthAdjust="spacing" textLength="65" x="166.9946" y="797.5889">pos:float</text><text fill="#000000" font-family="sans-serif" font-size="14" lengthAdjust="spacing" textLength="88" x="166.9946" y="813.8857">grupos:float</text><text fill="#000000" font-family="sans-serif" font-size="14" lengthAdjust="spacing" textLength="102" x="166.9946" y="830.1826">obstaculos:str</text><text fill="#000000" font-family="sans-serif" font-size="14" lengthAdjust="spacing" textLength="74" x="166.9946" y="846.4795">estado:int</text><text fill="#000000" font-family="sans-serif" font-size="14" lengthAdjust="spacing" textLength="69" x="166.9946" y="862.7764">image:str</text><text fill="#000000" font-family="sans-serif" font-size="14" lengthAdjust="spacing" textLength="55" x="166.9946" y="879.0732">rect:int</text><text fill="#000000" font-family="sans-serif" font-size="14" lengthAdjust="spacing" textLength="72" x="166.9946" y="895.3701">hitbox:int</text><text fill="#000000" font-family="sans-serif" font-size="14" lengthAdjust="spacing" textLength="142" x="166.9946" y="911.667">nombremoustro:str</text><text fill="#000000" font-family="sans-serif" font-size="14" lengthAdjust="spacing" textLength="113" x="166.9946" y="927.9639">moustroinfo:str</text><text fill="#000000" font-family="sans-serif" font-size="14" lengthAdjust="spacing" textLength="54" x="166.9946" y="944.2607">vida:int</text><text fill="#000000" font-family="sans-serif" font-size="14" lengthAdjust="spacing" textLength="43" x="166.9946" y="960.5576">xp:int</text><text fill="#000000" font-family="sans-serif" font-size="14" lengthAdjust="spacing" textLength="93" x="166.9946" y="976.8545">velocidad:int</text><text fill="#000000" font-family="sans-serif" font-size="14" lengthAdjust="spacing" textLength="60" x="166.9946" y="993.1514">daño:int</text><text fill="#000000" font-family="sans-serif" font-size="14" lengthAdjust="spacing" textLength="103" x="166.9946" y="1009.4482">resistencia:int</text><text fill="#000000" font-family="sans-serif" font-size="14" lengthAdjust="spacing" textLength="110" x="166.9946" y="1025.7451">radioataque:int</text><text fill="#000000" font-family="sans-serif" font-size="14" lengthAdjust="spacing" textLength="97" x="166.9946" y="1042.042">deteccion:int</text><text fill="#000000" font-family="sans-serif" font-size="14" lengthAdjust="spacing" textLength="55" x="166.9946" y="1058.3389">tipo:int</text><text fill="#000000" font-family="sans-serif" font-size="14" lengthAdjust="spacing" textLength="153" x="166.9946" y="1074.6357">puedeatacar:Boolean</text><text fill="#000000" font-family="sans-serif" font-size="14" lengthAdjust="spacing" textLength="127" x="166.9946" y="1090.9326">tiempoataque:int</text><text fill="#000000" font-family="sans-serif" font-size="14" lengthAdjust="spacing" textLength="123" x="166.9946" y="1107.2295">esperaataque:int</text><line style="stroke:#006400;stroke-width:0.5;" x1="161.9946" x2="443.9946" y1="1114.5313" y2="1114.5313"/><text fill="#000000" font-family="sans-serif" font-size="14" lengthAdjust="spacing" textLength="196" x="166.9946" y="1131.5264">importargraficos(name:str)</text><text fill="#000000" font-family="sans-serif" font-size="14" lengthAdjust="spacing" textLength="272" x="166.9946" y="1147.8232">get_player_distance_direction(player)</text><text fill="#000000" font-family="sans-serif" font-size="14" lengthAdjust="spacing" textLength="181" x="166.9946" y="1164.1201">tomarestado(jugador:int)</text><text fill="#000000" font-family="sans-serif" font-size="14" lengthAdjust="spacing" textLength="150" x="166.9946" y="1180.417">acciones(jugador:int)</text><text fill="#000000" font-family="sans-serif" font-size="14" lengthAdjust="spacing" textLength="83" x="166.9946" y="1196.7139">animacion()</text><text fill="#000000" font-family="sans-serif" font-size="14" lengthAdjust="spacing" textLength="115" x="166.9946" y="1213.0107">esperaataques()</text><text fill="#000000" font-family="sans-serif" font-size="14" lengthAdjust="spacing" textLength="61" x="166.9946" y="1229.3076">update()</text><text fill="#000000" font-family="sans-serif" font-size="14" lengthAdjust="spacing" textLength="251" x="166.9946" y="1245.6045">actualizacionenemigos(jugador:int)</text></g><!--MD5=[4784e9355f67716d8618ae5e89cc6cc7]
class Entidad--><g id="elem_Entidad"><rect codeLine="59" fill="#90EE90" height="145.7813" id="Entidad" rx="2.5" ry="2.5" style="stroke:#006400;stroke-width:0.5;" width="167" x="152.4946" y="1354.7969"/><ellipse cx="204.2446" cy="1370.7969" fill="#ADD1B2" rx="11" ry="11" style="stroke:#181818;stroke-width:1.0;"/><path d="M206.5884,1366.4688 C205.6509,1366.0313 205.0571,1365.8906 204.1821,1365.8906 C201.5571,1365.8906 199.5571,1367.9688 199.5571,1370.6875 L199.5571,1371.8125 C199.5571,1374.3906 201.6665,1376.2813 204.5571,1376.2813 C205.7759,1376.2813 206.9321,1375.9844 207.6821,1375.4375 C208.2602,1375.0313 208.5884,1374.5781 208.5884,1374.1875 C208.5884,1373.7344 208.1977,1373.3438 207.729,1373.3438 C207.5102,1373.3438 207.3071,1373.4219 207.1196,1373.6094 C206.6665,1374.0938 206.6665,1374.0938 206.479,1374.1875 C206.0571,1374.4531 205.3696,1374.5781 204.604,1374.5781 C202.5571,1374.5781 201.2602,1373.4844 201.2602,1371.7813 L201.2602,1370.6875 C201.2602,1368.9063 202.5102,1367.5938 204.2446,1367.5938 C204.8227,1367.5938 205.4321,1367.75 205.9009,1368 C206.3852,1368.2813 206.5571,1368.5 206.6509,1368.9063 C206.7134,1369.3125 206.7446,1369.4375 206.8852,1369.5625 C207.0259,1369.7031 207.2602,1369.8125 207.479,1369.8125 C207.7446,1369.8125 208.0102,1369.6719 208.1821,1369.4531 C208.2915,1369.2969 208.3227,1369.1094 208.3227,1368.6875 L208.3227,1367.2656 C208.3227,1366.8281 208.3071,1366.7031 208.2134,1366.5469 C208.0571,1366.2813 207.7759,1366.1406 207.479,1366.1406 C207.1821,1366.1406 206.979,1366.2344 206.7602,1366.5469 L206.5884,1366.4688 Z " fill="#000000"/><text fill="#000000" font-family="sans-serif" font-size="14" lengthAdjust="spacing" textLength="55" x="224.7446" y="1375.6436">Entidad</text><line style="stroke:#006400;stroke-width:0.5;" x1="153.4946" x2="318.4946" y1="1386.7969" y2="1386.7969"/><text fill="#000000" font-family="sans-serif" font-size="14" lengthAdjust="spacing" textLength="88" x="158.4946" y="1403.792">grupos:float</text><text fill="#000000" font-family="sans-serif" font-size="14" lengthAdjust="spacing" textLength="79" x="158.4946" y="1420.0889">framesi:int</text><text fill="#000000" font-family="sans-serif" font-size="14" lengthAdjust="spacing" textLength="120" x="158.4946" y="1436.3857">animacionv:float</text><text fill="#000000" font-family="sans-serif" font-size="14" lengthAdjust="spacing" textLength="91" x="158.4946" y="1452.6826">direccion:int</text><line style="stroke:#006400;stroke-width:0.5;" x1="153.4946" x2="318.4946" y1="1459.9844" y2="1459.9844"/><text fill="#000000" font-family="sans-serif" font-size="14" lengthAdjust="spacing" textLength="143" x="158.4946" y="1476.9795">move(velovidad:int)</text><text fill="#000000" font-family="sans-serif" font-size="14" lengthAdjust="spacing" textLength="155" x="158.4946" y="1493.2764">colision(direccion:int)</text></g><!--MD5=[87febfabb545a9abcfcdd96684116cc0]
class Estadisticas--><g id="elem_Estadisticas"><rect codeLine="68" fill="#90EE90" height="162.0781" id="Estadisticas" rx="2.5" ry="2.5" style="stroke:#006400;stroke-width:0.5;" width="477" x="1065.4948" y="373.2969"/><ellipse cx="1257.2448" cy="389.2969" fill="#ADD1B2" rx="11" ry="11" style="stroke:#181818;stroke-width:1.0;"/><path d="M1259.5886,384.9688 C1258.6511,384.5313 1258.0573,384.3906 1257.1823,384.3906 C1254.5573,384.3906 1252.5573,386.4688 1252.5573,389.1875 L1252.5573,390.3125 C1252.5573,392.8906 1254.6667,394.7813 1257.5573,394.7813 C1258.7761,394.7813 1259.9323,394.4844 1260.6823,393.9375 C1261.2604,393.5313 1261.5886,393.0781 1261.5886,392.6875 C1261.5886,392.2344 1261.1979,391.8438 1260.7292,391.8438 C1260.5104,391.8438 1260.3073,391.9219 1260.1198,392.1094 C1259.6667,392.5938 1259.6667,392.5938 1259.4792,392.6875 C1259.0573,392.9531 1258.3698,393.0781 1257.6042,393.0781 C1255.5573,393.0781 1254.2604,391.9844 1254.2604,390.2813 L1254.2604,389.1875 C1254.2604,387.4063 1255.5104,386.0938 1257.2448,386.0938 C1257.8229,386.0938 1258.4323,386.25 1258.9011,386.5 C1259.3854,386.7813 1259.5573,387 1259.6511,387.4063 C1259.7136,387.8125 1259.7448,387.9375 1259.8854,388.0625 C1260.0261,388.2031 1260.2604,388.3125 1260.4792,388.3125 C1260.7448,388.3125 1261.0104,388.1719 1261.1823,387.9531 C1261.2917,387.7969 1261.3229,387.6094 1261.3229,387.1875 L1261.3229,385.7656 C1261.3229,385.3281 1261.3073,385.2031 1261.2136,385.0469 C1261.0573,384.7813 1260.7761,384.6406 1260.4792,384.6406 C1260.1823,384.6406 1259.9792,384.7344 1259.7604,385.0469 L1259.5886,384.9688 Z " fill="#000000"/><text fill="#000000" font-family="sans-serif" font-size="14" lengthAdjust="spacing" textLength="85" x="1277.7448" y="394.1436">Estadisticas</text><line style="stroke:#006400;stroke-width:0.5;" x1="1066.4948" x2="1541.4948" y1="405.2969" y2="405.2969"/><text fill="#000000" font-family="sans-serif" font-size="14" lengthAdjust="spacing" textLength="89" x="1071.4948" y="422.292">mostrars:str</text><text fill="#000000" font-family="sans-serif" font-size="14" lengthAdjust="spacing" textLength="147" x="1071.4948" y="438.5889">tamañobarravida:int</text><text fill="#000000" font-family="sans-serif" font-size="14" lengthAdjust="spacing" textLength="172" x="1071.4948" y="454.8857">tamañobarraenergia:int</text><line style="stroke:#006400;stroke-width:0.5;" x1="1066.4948" x2="1541.4948" y1="462.1875" y2="462.1875"/><text fill="#000000" font-family="sans-serif" font-size="14" lengthAdjust="spacing" textLength="90" x="1071.4948" y="479.1826">font:(str,int)</text><text fill="#000000" font-family="sans-serif" font-size="14" lengthAdjust="spacing" textLength="465" x="1071.4948" y="495.4795">mostrarbarra(actual:int, maximo:int, cuadrotrasero:int, color:str)</text><text fill="#000000" font-family="sans-serif" font-size="14" lengthAdjust="spacing" textLength="194" x="1071.4948" y="511.7764">mostrarexperiencia(xp:int)</text><text fill="#000000" font-family="sans-serif" font-size="14" lengthAdjust="spacing" textLength="138" x="1071.4948" y="528.0732">display(jugador:int)</text></g><!--MD5=[8bcffc30a6983c690d15bab696230ce7]
class Magia--><g id="elem_Magia"><rect codeLine="78" fill="#90EE90" height="96.8906" id="Magia" rx="2.5" ry="2.5" style="stroke:#006400;stroke-width:0.5;" width="100" x="365.9948" y="405.7969"/><ellipse cx="393.1448" cy="421.7969" fill="#ADD1B2" rx="11" ry="11" style="stroke:#181818;stroke-width:1.0;"/><path d="M395.4886,417.4688 C394.5511,417.0313 393.9573,416.8906 393.0823,416.8906 C390.4573,416.8906 388.4573,418.9688 388.4573,421.6875 L388.4573,422.8125 C388.4573,425.3906 390.5667,427.2813 393.4573,427.2813 C394.6761,427.2813 395.8323,426.9844 396.5823,426.4375 C397.1604,426.0313 397.4886,425.5781 397.4886,425.1875 C397.4886,424.7344 397.0979,424.3438 396.6292,424.3438 C396.4104,424.3438 396.2073,424.4219 396.0198,424.6094 C395.5667,425.0938 395.5667,425.0938 395.3792,425.1875 C394.9573,425.4531 394.2698,425.5781 393.5042,425.5781 C391.4573,425.5781 390.1604,424.4844 390.1604,422.7813 L390.1604,421.6875 C390.1604,419.9063 391.4104,418.5938 393.1448,418.5938 C393.7229,418.5938 394.3323,418.75 394.8011,419 C395.2854,419.2813 395.4573,419.5 395.5511,419.9063 C395.6136,420.3125 395.6448,420.4375 395.7854,420.5625 C395.9261,420.7031 396.1604,420.8125 396.3792,420.8125 C396.6448,420.8125 396.9104,420.6719 397.0823,420.4531 C397.1917,420.2969 397.2229,420.1094 397.2229,419.6875 L397.2229,418.2656 C397.2229,417.8281 397.2073,417.7031 397.1136,417.5469 C396.9573,417.2813 396.6761,417.1406 396.3792,417.1406 C396.0823,417.1406 395.8792,417.2344 395.6604,417.5469 L395.4886,417.4688 Z " fill="#000000"/><text fill="#000000" font-family="sans-serif" font-size="14" lengthAdjust="spacing" textLength="41" x="409.8448" y="426.6436">Magia</text><line style="stroke:#006400;stroke-width:0.5;" x1="366.9948" x2="464.9948" y1="437.7969" y2="437.7969"/><text fill="#000000" font-family="sans-serif" font-size="14" lengthAdjust="spacing" textLength="78" x="371.9948" y="454.792">jugador:int</text><text fill="#000000" font-family="sans-serif" font-size="14" lengthAdjust="spacing" textLength="88" x="371.9948" y="471.0889">grupos:float</text><text fill="#000000" font-family="sans-serif" font-size="14" lengthAdjust="spacing" textLength="69" x="371.9948" y="487.3857">image:str</text><line style="stroke:#006400;stroke-width:0.5;" x1="366.9948" x2="464.9948" y1="494.6875" y2="494.6875"/></g><!--MD5=[e570de1d41a3b8125e1c820568fd7a6a]
class Jugador--><g id="elem_Jugador"><rect codeLine="84" fill="#90EE90" height="520.6094" id="Jugador" rx="2.5" ry="2.5" style="stroke:#006400;stroke-width:0.5;" width="192" x="479.9948" y="732.2969"/><ellipse cx="545.2448" cy="748.2969" fill="#ADD1B2" rx="11" ry="11" style="stroke:#181818;stroke-width:1.0;"/><path d="M547.5886,743.9688 C546.6511,743.5313 546.0573,743.3906 545.1823,743.3906 C542.5573,743.3906 540.5573,745.4688 540.5573,748.1875 L540.5573,749.3125 C540.5573,751.8906 542.6667,753.7813 545.5573,753.7813 C546.7761,753.7813 547.9323,753.4844 548.6823,752.9375 C549.2604,752.5313 549.5886,752.0781 549.5886,751.6875 C549.5886,751.2344 549.1979,750.8438 548.7292,750.8438 C548.5104,750.8438 548.3073,750.9219 548.1198,751.1094 C547.6667,751.5938 547.6667,751.5938 547.4792,751.6875 C547.0573,751.9531 546.3698,752.0781 545.6042,752.0781 C543.5573,752.0781 542.2604,750.9844 542.2604,749.2813 L542.2604,748.1875 C542.2604,746.4063 543.5104,745.0938 545.2448,745.0938 C545.8229,745.0938 546.4323,745.25 546.9011,745.5 C547.3854,745.7813 547.5573,746 547.6511,746.4063 C547.7136,746.8125 547.7448,746.9375 547.8854,747.0625 C548.0261,747.2031 548.2604,747.3125 548.4792,747.3125 C548.7448,747.3125 549.0104,747.1719 549.1823,746.9531 C549.2917,746.7969 549.3229,746.6094 549.3229,746.1875 L549.3229,744.7656 C549.3229,744.3281 549.3073,744.2031 549.2136,744.0469 C549.0573,743.7813 548.7761,743.6406 548.4792,743.6406 C548.1823,743.6406 547.9792,743.7344 547.7604,744.0469 L547.5886,743.9688 Z " fill="#000000"/><text fill="#000000" font-family="sans-serif" font-size="14" lengthAdjust="spacing" textLength="53" x="565.7448" y="753.1436">Jugador</text><line style="stroke:#006400;stroke-width:0.5;" x1="480.9948" x2="670.9948" y1="764.2969" y2="764.2969"/><text fill="#000000" font-family="sans-serif" font-size="14" lengthAdjust="spacing" textLength="65" x="485.9948" y="781.292">pos:float</text><text fill="#000000" font-family="sans-serif" font-size="14" lengthAdjust="spacing" textLength="88" x="485.9948" y="797.5889">grupos:float</text><text fill="#000000" font-family="sans-serif" font-size="14" lengthAdjust="spacing" textLength="102" x="485.9948" y="813.8857">obstaculos:str</text><text fill="#000000" font-family="sans-serif" font-size="14" lengthAdjust="spacing" textLength="69" x="485.9948" y="830.1826">image:str</text><text fill="#000000" font-family="sans-serif" font-size="14" lengthAdjust="spacing" textLength="55" x="485.9948" y="846.4795">rect:int</text><text fill="#000000" font-family="sans-serif" font-size="14" lengthAdjust="spacing" textLength="72" x="485.9948" y="862.7764">hitbox:int</text><text fill="#000000" font-family="sans-serif" font-size="14" lengthAdjust="spacing" textLength="74" x="485.9948" y="879.0732">estado:int</text><text fill="#000000" font-family="sans-serif" font-size="14" lengthAdjust="spacing" textLength="132" x="485.9948" y="895.3701">animaciondent:int</text><text fill="#000000" font-family="sans-serif" font-size="14" lengthAdjust="spacing" textLength="180" x="485.9948" y="911.667">velocidadanimacion:float</text><text fill="#000000" font-family="sans-serif" font-size="14" lengthAdjust="spacing" textLength="91" x="485.9948" y="927.9639">direccion:int</text><text fill="#000000" font-family="sans-serif" font-size="14" lengthAdjust="spacing" textLength="93" x="485.9948" y="944.2607">velocidad:int</text><text fill="#000000" font-family="sans-serif" font-size="14" lengthAdjust="spacing" textLength="116" x="485.9948" y="960.5576">ataque: boolean</text><text fill="#000000" font-family="sans-serif" font-size="14" lengthAdjust="spacing" textLength="100" x="485.9948" y="976.8545">ataqueesp:int</text><text fill="#000000" font-family="sans-serif" font-size="14" lengthAdjust="spacing" textLength="43" x="485.9948" y="993.1514">sw:int</text><text fill="#000000" font-family="sans-serif" font-size="14" lengthAdjust="spacing" textLength="70" x="485.9948" y="1009.4482">atacar:str</text><text fill="#000000" font-family="sans-serif" font-size="14" lengthAdjust="spacing" textLength="68" x="485.9948" y="1025.7451">magia:str</text><text fill="#000000" font-family="sans-serif" font-size="14" lengthAdjust="spacing" textLength="110" x="485.9948" y="1042.042">estadisticas:int</text><text fill="#000000" font-family="sans-serif" font-size="14" lengthAdjust="spacing" textLength="68" x="485.9948" y="1058.3389">vida:float</text><text fill="#000000" font-family="sans-serif" font-size="14" lengthAdjust="spacing" textLength="93" x="485.9948" y="1074.6357">energia:float</text><text fill="#000000" font-family="sans-serif" font-size="14" lengthAdjust="spacing" textLength="43" x="485.9948" y="1090.9326">xp:int</text><text fill="#000000" font-family="sans-serif" font-size="14" lengthAdjust="spacing" textLength="93" x="485.9948" y="1107.2295">velocidad:int</text><line style="stroke:#006400;stroke-width:0.5;" x1="480.9948" x2="670.9948" y1="1114.5313" y2="1114.5313"/><text fill="#000000" font-family="sans-serif" font-size="14" lengthAdjust="spacing" textLength="99" x="485.9948" y="1131.5264">animaciones()</text><text fill="#000000" font-family="sans-serif" font-size="14" lengthAdjust="spacing" textLength="48" x="485.9948" y="1147.8232">input()</text><text fill="#000000" font-family="sans-serif" font-size="14" lengthAdjust="spacing" textLength="66" x="485.9948" y="1164.1201">estados()</text><text fill="#000000" font-family="sans-serif" font-size="14" lengthAdjust="spacing" textLength="143" x="485.9948" y="1180.417">move(velocidad:int)</text><text fill="#000000" font-family="sans-serif" font-size="14" lengthAdjust="spacing" textLength="59" x="485.9948" y="1196.7139">espera()</text><text fill="#000000" font-family="sans-serif" font-size="14" lengthAdjust="spacing" textLength="80" x="485.9948" y="1213.0107">secuencia()</text><text fill="#000000" font-family="sans-serif" font-size="14" lengthAdjust="spacing" textLength="160" x="485.9948" y="1229.3076">colicion(direccion:int )</text><text fill="#000000" font-family="sans-serif" font-size="14" lengthAdjust="spacing" textLength="61" x="485.9948" y="1245.6045">update()</text></g><!--MD5=[84718776d214be480e4c259efcb737fc]
class Main--><g id="elem_Main"><rect codeLine="116" fill="#90EE90" height="96.8906" id="Main" rx="2.5" ry="2.5" style="stroke:#006400;stroke-width:0.5;" width="101" x="853.4948" y="1602.2969"/><ellipse cx="884.6948" cy="1618.2969" fill="#ADD1B2" rx="11" ry="11" style="stroke:#181818;stroke-width:1.0;"/><path d="M887.0386,1613.9688 C886.1011,1613.5313 885.5073,1613.3906 884.6323,1613.3906 C882.0073,1613.3906 880.0073,1615.4688 880.0073,1618.1875 L880.0073,1619.3125 C880.0073,1621.8906 882.1167,1623.7813 885.0073,1623.7813 C886.2261,1623.7813 887.3823,1623.4844 888.1323,1622.9375 C888.7104,1622.5313 889.0386,1622.0781 889.0386,1621.6875 C889.0386,1621.2344 888.6479,1620.8438 888.1792,1620.8438 C887.9604,1620.8438 887.7573,1620.9219 887.5698,1621.1094 C887.1167,1621.5938 887.1167,1621.5938 886.9292,1621.6875 C886.5073,1621.9531 885.8198,1622.0781 885.0542,1622.0781 C883.0073,1622.0781 881.7104,1620.9844 881.7104,1619.2813 L881.7104,1618.1875 C881.7104,1616.4063 882.9604,1615.0938 884.6948,1615.0938 C885.2729,1615.0938 885.8823,1615.25 886.3511,1615.5 C886.8354,1615.7813 887.0073,1616 887.1011,1616.4063 C887.1636,1616.8125 887.1948,1616.9375 887.3354,1617.0625 C887.4761,1617.2031 887.7104,1617.3125 887.9292,1617.3125 C888.1948,1617.3125 888.4604,1617.1719 888.6323,1616.9531 C888.7417,1616.7969 888.7729,1616.6094 888.7729,1616.1875 L888.7729,1614.7656 C888.7729,1614.3281 888.7573,1614.2031 888.6636,1614.0469 C888.5073,1613.7813 888.2261,1613.6406 887.9292,1613.6406 C887.6323,1613.6406 887.4292,1613.7344 887.2104,1614.0469 L887.0386,1613.9688 Z " fill="#000000"/><text fill="#000000" font-family="sans-serif" font-size="14" lengthAdjust="spacing" textLength="33" x="902.2948" y="1623.1436">Main</text><line style="stroke:#006400;stroke-width:0.5;" x1="854.4948" x2="953.4948" y1="1634.2969" y2="1634.2969"/><text fill="#000000" font-family="sans-serif" font-size="14" lengthAdjust="spacing" textLength="83" x="859.4948" y="1651.292">pantalla:str</text><text fill="#000000" font-family="sans-serif" font-size="14" lengthAdjust="spacing" textLength="89" x="859.4948" y="1667.5889">frames:float</text><line style="stroke:#006400;stroke-width:0.5;" x1="854.4948" x2="953.4948" y1="1674.8906" y2="1674.8906"/><text fill="#000000" font-family="sans-serif" font-size="14" lengthAdjust="spacing" textLength="33" x="859.4948" y="1691.8857">run()</text></g><!--MD5=[d544e1720d36c287a1d38909fe06b56d]
class Nivel--><g id="elem_Nivel"><rect codeLine="122" fill="#90EE90" height="243.5625" id="Nivel" rx="2.5" ry="2.5" style="stroke:#006400;stroke-width:0.5;" width="206" x="656.9948" y="44.2969"/><ellipse cx="738.2448" cy="60.2969" fill="#ADD1B2" rx="11" ry="11" style="stroke:#181818;stroke-width:1.0;"/><path d="M740.5885,55.9688 C739.651,55.5313 739.0573,55.3906 738.1823,55.3906 C735.5573,55.3906 733.5573,57.4688 733.5573,60.1875 L733.5573,61.3125 C733.5573,63.8906 735.6667,65.7813 738.5573,65.7813 C739.776,65.7813 740.9323,65.4844 741.6823,64.9375 C742.2604,64.5313 742.5885,64.0781 742.5885,63.6875 C742.5885,63.2344 742.1979,62.8438 741.7292,62.8438 C741.5104,62.8438 741.3073,62.9219 741.1198,63.1094 C740.6667,63.5938 740.6667,63.5938 740.4792,63.6875 C740.0573,63.9531 739.3698,64.0781 738.6042,64.0781 C736.5573,64.0781 735.2604,62.9844 735.2604,61.2813 L735.2604,60.1875 C735.2604,58.4063 736.5104,57.0938 738.2448,57.0938 C738.8229,57.0938 739.4323,57.25 739.901,57.5 C740.3854,57.7813 740.5573,58 740.651,58.4063 C740.7135,58.8125 740.7448,58.9375 740.8854,59.0625 C741.026,59.2031 741.2604,59.3125 741.4792,59.3125 C741.7448,59.3125 742.0104,59.1719 742.1823,58.9531 C742.2917,58.7969 742.3229,58.6094 742.3229,58.1875 L742.3229,56.7656 C742.3229,56.3281 742.3073,56.2031 742.2135,56.0469 C742.0573,55.7813 741.776,55.6406 741.4792,55.6406 C741.1823,55.6406 740.9792,55.7344 740.7604,56.0469 L740.5885,55.9688 Z " fill="#000000"/><text fill="#000000" font-family="sans-serif" font-size="14" lengthAdjust="spacing" textLength="35" x="758.7448" y="65.1436">Nivel</text><line style="stroke:#006400;stroke-width:0.5;" x1="657.9948" x2="861.9948" y1="76.2969" y2="76.2969"/><text fill="#000000" font-family="sans-serif" font-size="14" lengthAdjust="spacing" textLength="89" x="662.9948" y="93.292">mostrars:str</text><text fill="#000000" font-family="sans-serif" font-size="14" lengthAdjust="spacing" textLength="76" x="662.9948" y="109.5889">spritev:str</text><text fill="#000000" font-family="sans-serif" font-size="14" lengthAdjust="spacing" textLength="106" x="662.9948" y="125.8857">obstaculos: str</text><text fill="#000000" font-family="sans-serif" font-size="14" lengthAdjust="spacing" textLength="117" x="662.9948" y="142.1826">ataqueactual:int</text><text fill="#000000" font-family="sans-serif" font-size="14" lengthAdjust="spacing" textLength="124" x="662.9948" y="158.4795">spritesataque:str</text><text fill="#000000" font-family="sans-serif" font-size="14" lengthAdjust="spacing" textLength="194" x="662.9948" y="174.7764">spritesataqueenemigos:str</text><text fill="#000000" font-family="sans-serif" font-size="14" lengthAdjust="spacing" textLength="61" x="662.9948" y="191.0732">stats:int</text><line style="stroke:#006400;stroke-width:0.5;" x1="657.9948" x2="861.9948" y1="198.375" y2="198.375"/><text fill="#000000" font-family="sans-serif" font-size="14" lengthAdjust="spacing" textLength="87" x="662.9948" y="215.3701">crearmapa()</text><text fill="#000000" font-family="sans-serif" font-size="14" lengthAdjust="spacing" textLength="55" x="662.9948" y="231.667">atacar()</text><text fill="#000000" font-family="sans-serif" font-size="14" lengthAdjust="spacing" textLength="53" x="662.9948" y="247.9639">magia()</text><text fill="#000000" font-family="sans-serif" font-size="14" lengthAdjust="spacing" textLength="118" x="662.9948" y="264.2607">logicaataquesp()</text><text fill="#000000" font-family="sans-serif" font-size="14" lengthAdjust="spacing" textLength="33" x="662.9948" y="280.5576">run()</text></g><!--MD5=[d2447a18338d9fdec22c5d8723ed689c]
class YCamaraGrupo--><g id="elem_YCamaraGrupo"><rect codeLine="138" fill="#90EE90" height="178.375" id="YCamaraGrupo" rx="2.5" ry="2.5" style="stroke:#006400;stroke-width:0.5;" width="248" x="1577.9928" y="365.2969"/><ellipse cx="1644.2428" cy="381.2969" fill="#ADD1B2" rx="11" ry="11" style="stroke:#181818;stroke-width:1.0;"/><path d="M1646.5866,376.9688 C1645.6491,376.5313 1645.0553,376.3906 1644.1803,376.3906 C1641.5553,376.3906 1639.5553,378.4688 1639.5553,381.1875 L1639.5553,382.3125 C1639.5553,384.8906 1641.6647,386.7813 1644.5553,386.7813 C1645.7741,386.7813 1646.9303,386.4844 1647.6803,385.9375 C1648.2584,385.5313 1648.5866,385.0781 1648.5866,384.6875 C1648.5866,384.2344 1648.1959,383.8438 1647.7272,383.8438 C1647.5084,383.8438 1647.3053,383.9219 1647.1178,384.1094 C1646.6647,384.5938 1646.6647,384.5938 1646.4772,384.6875 C1646.0553,384.9531 1645.3678,385.0781 1644.6022,385.0781 C1642.5553,385.0781 1641.2584,383.9844 1641.2584,382.2813 L1641.2584,381.1875 C1641.2584,379.4063 1642.5084,378.0938 1644.2428,378.0938 C1644.8209,378.0938 1645.4303,378.25 1645.8991,378.5 C1646.3834,378.7813 1646.5553,379 1646.6491,379.4063 C1646.7116,379.8125 1646.7428,379.9375 1646.8834,380.0625 C1647.0241,380.2031 1647.2584,380.3125 1647.4772,380.3125 C1647.7428,380.3125 1648.0084,380.1719 1648.1803,379.9531 C1648.2897,379.7969 1648.3209,379.6094 1648.3209,379.1875 L1648.3209,377.7656 C1648.3209,377.3281 1648.3053,377.2031 1648.2116,377.0469 C1648.0553,376.7813 1647.7741,376.6406 1647.4772,376.6406 C1647.1803,376.6406 1646.9772,376.7344 1646.7584,377.0469 L1646.5866,376.9688 Z " fill="#000000"/><text fill="#000000" font-family="sans-serif" font-size="14" lengthAdjust="spacing" textLength="107" x="1664.7428" y="386.1436">YCamaraGrupo</text><line style="stroke:#006400;stroke-width:0.5;" x1="1578.9928" x2="1824.9928" y1="397.2969" y2="397.2969"/><text fill="#000000" font-family="sans-serif" font-size="14" lengthAdjust="spacing" textLength="89" x="1583.9928" y="414.292">mostrars:int</text><text fill="#000000" font-family="sans-serif" font-size="14" lengthAdjust="spacing" textLength="110" x="1583.9928" y="430.5889">mitadancho:int</text><text fill="#000000" font-family="sans-serif" font-size="14" lengthAdjust="spacing" textLength="103" x="1583.9928" y="446.8857">mitadlargo:int</text><text fill="#000000" font-family="sans-serif" font-size="14" lengthAdjust="spacing" textLength="69" x="1583.9928" y="463.1826">offset:int</text><text fill="#000000" font-family="sans-serif" font-size="14" lengthAdjust="spacing" textLength="144" x="1583.9928" y="479.4795">suelo_superficie: str</text><text fill="#000000" font-family="sans-serif" font-size="14" lengthAdjust="spacing" textLength="99" x="1583.9928" y="495.7764">suelo_rect:int</text><line style="stroke:#006400;stroke-width:0.5;" x1="1578.9928" x2="1824.9928" y1="503.0781" y2="503.0781"/><text fill="#000000" font-family="sans-serif" font-size="14" lengthAdjust="spacing" textLength="182" x="1583.9928" y="520.0732">custom_draw(jugador:int)</text><text fill="#000000" font-family="sans-serif" font-size="14" lengthAdjust="spacing" textLength="236" x="1583.9928" y="536.3701">actualizacionenemigo(jugdor:int)</text></g><!--MD5=[f44c1237be26e755a55d2a38a21c54d9]
class Soporte--><g id="elem_Soporte"><rect codeLine="149" fill="#90EE90" height="80.5938" id="Soporte" rx="2.5" ry="2.5" style="stroke:#006400;stroke-width:0.5;" width="212" x="354.9948" y="1387.2969"/><ellipse cx="427.2448" cy="1403.2969" fill="#ADD1B2" rx="11" ry="11" style="stroke:#181818;stroke-width:1.0;"/><path d="M429.5886,1398.9688 C428.6511,1398.5313 428.0573,1398.3906 427.1823,1398.3906 C424.5573,1398.3906 422.5573,1400.4688 422.5573,1403.1875 L422.5573,1404.3125 C422.5573,1406.8906 424.6667,1408.7813 427.5573,1408.7813 C428.7761,1408.7813 429.9323,1408.4844 430.6823,1407.9375 C431.2604,1407.5313 431.5886,1407.0781 431.5886,1406.6875 C431.5886,1406.2344 431.1979,1405.8438 430.7292,1405.8438 C430.5104,1405.8438 430.3073,1405.9219 430.1198,1406.1094 C429.6667,1406.5938 429.6667,1406.5938 429.4792,1406.6875 C429.0573,1406.9531 428.3698,1407.0781 427.6042,1407.0781 C425.5573,1407.0781 424.2604,1405.9844 424.2604,1404.2813 L424.2604,1403.1875 C424.2604,1401.4063 425.5104,1400.0938 427.2448,1400.0938 C427.8229,1400.0938 428.4323,1400.25 428.9011,1400.5 C429.3854,1400.7813 429.5573,1401 429.6511,1401.4063 C429.7136,1401.8125 429.7448,1401.9375 429.8854,1402.0625 C430.0261,1402.2031 430.2604,1402.3125 430.4792,1402.3125 C430.7448,1402.3125 431.0104,1402.1719 431.1823,1401.9531 C431.2917,1401.7969 431.3229,1401.6094 431.3229,1401.1875 L431.3229,1399.7656 C431.3229,1399.3281 431.3073,1399.2031 431.2136,1399.0469 C431.0573,1398.7813 430.7761,1398.6406 430.4792,1398.6406 C430.1823,1398.6406 429.9792,1398.7344 429.7604,1399.0469 L429.5886,1398.9688 Z " fill="#000000"/><text fill="#000000" font-family="sans-serif" font-size="14" lengthAdjust="spacing" textLength="59" x="447.7448" y="1408.1436">Soporte</text><line style="stroke:#006400;stroke-width:0.5;" x1="355.9948" x2="565.9948" y1="1419.2969" y2="1419.2969"/><line style="stroke:#006400;stroke-width:0.5;" x1="355.9948" x2="565.9948" y1="1427.2969" y2="1427.2969"/><text fill="#000000" font-family="sans-serif" font-size="14" lengthAdjust="spacing" textLength="200" x="360.9948" y="1444.292">import_csv_layout(path:str)</text><text fill="#000000" font-family="sans-serif" font-size="14" lengthAdjust="spacing" textLength="169" x="360.9948" y="1460.5889">import_folder(path:str)</text></g><!--MD5=[4113cce07d6226550cc0567fb80d57fc]
class Suelo--><g id="elem_Suelo"><rect codeLine="154" fill="#90EE90" height="129.4844" id="Suelo" rx="2.5" ry="2.5" style="stroke:#006400;stroke-width:0.5;" width="121" x="651.4948" y="573.2969"/><ellipse cx="688.9948" cy="589.2969" fill="#ADD1B2" rx="11" ry="11" style="stroke:#181818;stroke-width:1.0;"/><path d="M691.3385,584.9688 C690.401,584.5313 689.8073,584.3906 688.9323,584.3906 C686.3073,584.3906 684.3073,586.4688 684.3073,589.1875 L684.3073,590.3125 C684.3073,592.8906 686.4167,594.7813 689.3073,594.7813 C690.526,594.7813 691.6823,594.4844 692.4323,593.9375 C693.0104,593.5313 693.3385,593.0781 693.3385,592.6875 C693.3385,592.2344 692.9479,591.8438 692.4792,591.8438 C692.2604,591.8438 692.0573,591.9219 691.8698,592.1094 C691.4167,592.5938 691.4167,592.5938 691.2292,592.6875 C690.8073,592.9531 690.1198,593.0781 689.3542,593.0781 C687.3073,593.0781 686.0104,591.9844 686.0104,590.2813 L686.0104,589.1875 C686.0104,587.4063 687.2604,586.0938 688.9948,586.0938 C689.5729,586.0938 690.1823,586.25 690.651,586.5 C691.1354,586.7813 691.3073,587 691.401,587.4063 C691.4635,587.8125 691.4948,587.9375 691.6354,588.0625 C691.776,588.2031 692.0104,588.3125 692.2292,588.3125 C692.4948,588.3125 692.7604,588.1719 692.9323,587.9531 C693.0417,587.7969 693.0729,587.6094 693.0729,587.1875 L693.0729,585.7656 C693.0729,585.3281 693.0573,585.2031 692.9635,585.0469 C692.8073,584.7813 692.526,584.6406 692.2292,584.6406 C691.9323,584.6406 691.7292,584.7344 691.5104,585.0469 L691.3385,584.9688 Z " fill="#000000"/><text fill="#000000" font-family="sans-serif" font-size="14" lengthAdjust="spacing" textLength="39" x="707.9948" y="594.1436">Suelo</text><line style="stroke:#006400;stroke-width:0.5;" x1="652.4948" x2="771.4948" y1="605.2969" y2="605.2969"/><text fill="#000000" font-family="sans-serif" font-size="14" lengthAdjust="spacing" textLength="51" x="657.4948" y="622.292">pos:int</text><text fill="#000000" font-family="sans-serif" font-size="14" lengthAdjust="spacing" textLength="88" x="657.4948" y="638.5889">grupos:float</text><text fill="#000000" font-family="sans-serif" font-size="14" lengthAdjust="spacing" textLength="109" x="657.4948" y="654.8857">sprite_type:str</text><text fill="#000000" font-family="sans-serif" font-size="14" lengthAdjust="spacing" textLength="77" x="657.4948" y="671.1826">surface:str</text><text fill="#000000" font-family="sans-serif" font-size="14" lengthAdjust="spacing" textLength="69" x="657.4948" y="687.4795">image:int</text><line style="stroke:#006400;stroke-width:0.5;" x1="652.4948" x2="771.4948" y1="694.7813" y2="694.7813"/></g><!--MD5=[5cf5431d68a2a7e59ecdd7d9b5cab18b]
link Ajustes to Main--><g id="link_Ajustes_Main"><path codeLine="162" d="M819.3608,1545.3049 C832.4848,1561.5079 857.9113,1592.9017 857.9113,1592.9017 " fill="none" id="Ajustes-Main" style="stroke:#181818;stroke-width:1.0;"/><polygon fill="#181818" points="811.0868,1535.0889,813.6423,1544.6004,814.2335,1538.9745,819.8593,1539.5658,811.0868,1535.0889" style="stroke:#181818;stroke-width:1.0;"/><line style="stroke:#181818;stroke-width:1.0;" x1="814.2335" x2="819.2688" y1="1538.9745" y2="1545.1914"/><polygon fill="#181818" points="865.4648,1602.2262,864.7962,1595.0461,857.9113,1592.9017,858.5799,1600.0818,865.4648,1602.2262" style="stroke:#181818;stroke-width:1.0;"/><text fill="#000000" font-family="sans-serif" font-size="13" lengthAdjust="spacing" textLength="8" x="822.8788" y="1540.4143">1</text><text fill="#000000" font-family="sans-serif" font-size="13" lengthAdjust="spacing" textLength="8" x="845.7495" y="1591.0751">1</text></g><!--MD5=[19e842aecceca501866abc14d252ba76]
link Nivel to Main--><g id="link_Nivel_Main"><path codeLine="163" d="M863.2198,229.4269 C932.8128,279.9669 1011.9948,358.3369 1011.9948,453.2969 C1011.9948,453.2969 1011.9948,453.2969 1011.9948,1428.7969 C1011.9948,1488.5099 979.7738,1548.9249 950.5308,1591.4599 " fill="none" id="Nivel-to-Main" style="stroke:#181818;stroke-width:1.0;"/><polygon fill="#181818" points="942.9848,1602.1493,949.7127,1599.5541,949.9048,1592.3455,943.1769,1594.9407,942.9848,1602.1493" style="stroke:#181818;stroke-width:1.0;"/><text fill="#000000" font-family="sans-serif" font-size="13" lengthAdjust="spacing" textLength="8" x="953.5928" y="1591.337">1</text></g><!--MD5=[e87ed95c21d4184b4edaf5c5af296fe0]
link Debug to Main--><g id="link_Debug_Main"><path codeLine="164" d="M903.9948,678.4269 C903.9948,837.5119 903.9948,1429.3999 903.9948,1602.167 " fill="none" id="Debug-Main" style="stroke:#181818;stroke-width:1.0;"/><text fill="#000000" font-family="sans-serif" font-size="13" lengthAdjust="spacing" textLength="7" x="891.8464" y="697.9049">*</text><text fill="#000000" font-family="sans-serif" font-size="13" lengthAdjust="spacing" textLength="8" x="935.3698" y="1591.3575">1</text></g><!--MD5=[582ca741373f6b627b22c5552307b55e]
link Jugador to Ajustes--><g id="link_Jugador_Ajustes"><path codeLine="165" d="M665.3568,1253.4859 C671.9758,1272.7209 678.4318,1291.4819 684.5038,1309.1279 " fill="none" id="Jugador-to-Ajustes" style="stroke:#181818;stroke-width:1.0;"/><polygon fill="#181818" points="686.2058,1314.0749,687.0597,1304.2631,684.5789,1309.347,679.495,1306.8662,686.2058,1314.0749" style="stroke:#181818;stroke-width:1.0;"/><text fill="#000000" font-family="sans-serif" font-size="13" lengthAdjust="spacing" textLength="7" x="656.5313" y="1272.6835">*</text><text fill="#000000" font-family="sans-serif" font-size="13" lengthAdjust="spacing" textLength="8" x="671.2084" y="1303.3717">1</text></g><!--MD5=[f954c4840b351a0ef7b64d3b2c5a77ec]
reverse link Jugador to Soporte--><g id="link_Jugador_Soporte"><path codeLine="166" d="M503.6238,1266.2879 C491.0248,1313.7259 479.4488,1357.3129 471.5488,1387.0569 " fill="none" id="Jugador-backto-Soporte" style="stroke:#181818;stroke-width:1.0;"/><polygon fill="#181818" points="507.0238,1253.4859,501.6176,1258.258,503.9433,1265.0838,509.3495,1260.3116,507.0238,1253.4859" style="stroke:#181818;stroke-width:1.0;"/><text fill="#000000" font-family="sans-serif" font-size="13" lengthAdjust="spacing" textLength="7" x="493.9925" y="1272.6835">*</text><text fill="#000000" font-family="sans-serif" font-size="13" lengthAdjust="spacing" textLength="7" x="461.0546" y="1376.1787">*</text></g><!--MD5=[81ba64be84548199dd56178b85261c74]
link Magia to Jugador--><g id="link_Magia_Jugador"><path codeLine="167" d="M430.1938,502.9069 C445.1398,553.0269 469.9188,636.1069 494.8458,719.6949 " fill="none" id="Magia-to-Jugador" style="stroke:#181818;stroke-width:1.0;"/><polygon fill="#181818" points="498.6038,732.2959,500.7219,725.4029,495.1738,720.7965,493.0557,727.6895,498.6038,732.2959" style="stroke:#181818;stroke-width:1.0;"/><text fill="#000000" font-family="sans-serif" font-size="13" lengthAdjust="spacing" textLength="7" x="420.1358" y="522.8813">*</text><text fill="#000000" font-family="sans-serif" font-size="13" lengthAdjust="spacing" textLength="7" x="485.0836" y="721.4143">*</text></g><!--MD5=[c05c4d9d03988618159c37dc126f027a]
link Armas to Jugador--><g id="link_Armas_Jugador"><path codeLine="168" d="M617.9128,502.9069 C613.6238,552.9269 606.5208,635.7669 599.3688,719.1799 " fill="none" id="Armas-to-Jugador" style="stroke:#181818;stroke-width:1.0;"/><polygon fill="#181818" points="598.2448,732.2959,602.7431,726.6598,599.2707,720.3398,594.7724,725.9759,598.2448,732.2959" style="stroke:#181818;stroke-width:1.0;"/><text fill="#000000" font-family="sans-serif" font-size="13" lengthAdjust="spacing" textLength="7" x="605.2841" y="522.8813">*</text><text fill="#000000" font-family="sans-serif" font-size="13" lengthAdjust="spacing" textLength="7" x="587.6827" y="721.4143">*</text></g><!--MD5=[14fdd2fd11625d0af81008ea03a445dc]
link Enemigos to Ajustes--><g id="link_Enemigos_Ajustes"><path codeLine="169" d="M445.1718,1236.7749 C450.6428,1242.5059 456.2518,1248.0279 461.9948,1253.2969 C506.6658,1294.2799 532.9088,1281.6579 583.9948,1314.2969 C600.9028,1325.0999 618.1788,1337.5419 634.5808,1350.1259 " fill="none" id="Enemigos-to-Ajustes" style="stroke:#181818;stroke-width:1.0;"/><polygon fill="#181818" points="638.7308,1353.3279,634.0487,1344.6631,634.7721,1350.2735,629.1617,1350.997,638.7308,1353.3279" style="stroke:#181818;stroke-width:1.0;"/><text fill="#000000" font-family="sans-serif" font-size="13" lengthAdjust="spacing" textLength="7" x="456.8895" y="1246.0487">*</text><text fill="#000000" font-family="sans-serif" font-size="13" lengthAdjust="spacing" textLength="8" x="618.9246" y="1343.6012">1</text></g><!--MD5=[536242d01e8f0938dbfd7f23f4ea77b1]
reverse link Enemigos to Soporte--><g id="link_Enemigos_Soporte"><path codeLine="170" d="M360.5638,1265.6929 C362.9488,1271.9929 365.4238,1278.2029 367.9948,1284.2969 C383.7248,1321.5879 409.2528,1359.7769 429.5878,1387.2229 " fill="none" id="Enemigos-backto-Soporte" style="stroke:#181818;stroke-width:1.0;"/><polygon fill="#181818" points="356.0908,1253.4739,354.3975,1260.4834,360.2166,1264.7423,361.9098,1257.7328,356.0908,1253.4739" style="stroke:#181818;stroke-width:1.0;"/><text fill="#000000" font-family="sans-serif" font-size="13" lengthAdjust="spacing" textLength="7" x="346.3019" y="1272.6712">*</text><text fill="#000000" font-family="sans-serif" font-size="13" lengthAdjust="spacing" textLength="7" x="429.6282" y="1376.3722">*</text></g><!--MD5=[1004c72dd5aa43e8fc375bbe7c1b8b03]
reverse link Enemigos to Entidad--><g id="link_Enemigos_Entidad"><path codeLine="171" d="M260.8088,1266.4319 C255.8118,1298.7219 251.0928,1329.2219 247.1378,1354.7799 " fill="none" id="Enemigos-backto-Entidad" style="stroke:#181818;stroke-width:1.0;"/><polygon fill="#181818" points="262.8118,1253.4859,257.9411,1258.8034,260.9762,1265.3447,265.8469,1260.0271,262.8118,1253.4859" style="stroke:#181818;stroke-width:1.0;"/><text fill="#000000" font-family="sans-serif" font-size="13" lengthAdjust="spacing" textLength="7" x="250.5452" y="1272.6835">*</text><text fill="#000000" font-family="sans-serif" font-size="13" lengthAdjust="spacing" textLength="7" x="236.5135" y="1343.5616">*</text></g><!--MD5=[d1a06b4fc94779a372e500b578515ffb]
link Nivel to Ajustes--><g id="link_Nivel_Ajustes"><path codeLine="172" d="M768.5558,288.4169 C769.1058,298.5269 769.5968,308.5869 769.9948,318.2969 C787.5568,747.3729 793.9568,857.2219 748.9948,1284.2969 C748.1458,1292.3549 747.1298,1300.6479 746.0018,1308.9879 " fill="none" id="Nivel-to-Ajustes" style="stroke:#181818;stroke-width:1.0;"/><polygon fill="#181818" points="745.2848,1314.1859,750.4765,1305.8165,745.9677,1309.2327,742.5515,1304.7239,745.2848,1314.1859" style="stroke:#181818;stroke-width:1.0;"/><text fill="#000000" font-family="sans-serif" font-size="13" lengthAdjust="spacing" textLength="7" x="757.6171" y="307.9939">*</text><text fill="#000000" font-family="sans-serif" font-size="13" lengthAdjust="spacing" textLength="8" x="734.1105" y="1303.1112">1</text></g><!--MD5=[c250ab17a1232c06cb73f04fd72dc03b]
link Nivel to Jugador--><g id="link_Nivel_Jugador"><path codeLine="173" d="M656.8158,237.5969 C616.7878,271.0769 575.4718,314.8669 553.9948,365.2969 C507.2888,474.9669 504.5758,605.4769 516.7618,718.9199 " fill="none" id="Nivel-to-Jugador" style="stroke:#181818;stroke-width:1.0;"/><polygon fill="#181818" points="518.2348,731.9579,521.5356,725.5466,516.887,720.0338,513.5862,726.4451,518.2348,731.9579" style="stroke:#181818;stroke-width:1.0;"/><text fill="#000000" font-family="sans-serif" font-size="13" lengthAdjust="spacing" textLength="7" x="638.0337" y="239.1698">*</text><text fill="#000000" font-family="sans-serif" font-size="13" lengthAdjust="spacing" textLength="7" x="505.2974" y="721.0662">*</text></g><!--MD5=[a9295e931bf32c3755e83fe20c0a814d]
link Nivel to Debug--><g id="link_Nivel_Debug"><path codeLine="174" d="M811.3798,288.3169 C815.1408,298.3969 818.7328,308.4769 821.9948,318.2969 C854.7628,416.9169 882.3838,536.2869 895.6148,597.0669 " fill="none" id="Nivel-Debug" style="stroke:#181818;stroke-width:1.0;"/><text fill="#000000" font-family="sans-serif" font-size="13" lengthAdjust="spacing" textLength="7" x="802.9169" y="307.8881">*</text><text fill="#000000" font-family="sans-serif" font-size="13" lengthAdjust="spacing" textLength="7" x="881.9847" y="586.1903">*</text></g><!--MD5=[c7d2f070c5ae408dd97e59918501e851]
link Nivel to Estadisticas--><g id="link_Nivel_Estadisticas"><path codeLine="175" d="M863.2768,221.5969 C944.7828,264.4469 1059.6948,324.8569 1151.7428,373.2569 " fill="none" id="Nivel-Estadisticas" style="stroke:#181818;stroke-width:1.0;"/><text fill="#000000" font-family="sans-serif" font-size="13" lengthAdjust="spacing" textLength="7" x="875.0662" y="222.0448">*</text><text fill="#000000" font-family="sans-serif" font-size="13" lengthAdjust="spacing" textLength="7" x="1126.0157" y="362.164">*</text></g><!--MD5=[d96888551b4c75fc55cd2ba792998e71]
link Nivel to Magia--><g id="link_Nivel_Magia"><path codeLine="176" d="M656.8998,209.4669 C603.3618,235.1069 539.5848,271.8769 492.9948,318.2969 C468.0508,343.1469 448.5288,377.7469 435.3828,405.6969 " fill="none" id="Nivel-Magia" style="stroke:#181818;stroke-width:1.0;"/><text fill="#000000" font-family="sans-serif" font-size="13" lengthAdjust="spacing" textLength="7" x="638.1236" y="209.0619">*</text><text fill="#000000" font-family="sans-serif" font-size="13" lengthAdjust="spacing" textLength="7" x="426.0545" y="394.8917">*</text></g><!--MD5=[f52bf778389af91c348db77be1e3d372]
link Nivel to Enemigos--><g id="link_Nivel_Enemigos"><path codeLine="177" d="M656.5518,186.4369 C559.3658,210.3369 418.6208,261.4569 347.9948,365.2969 C276.1668,470.9069 260.6448,611.0269 264.9418,731.9609 " fill="none" id="Nivel-Enemigos" style="stroke:#181818;stroke-width:1.0;"/><text fill="#000000" font-family="sans-serif" font-size="13" lengthAdjust="spacing" textLength="7" x="638.0978" y="184.3722">*</text><text fill="#000000" font-family="sans-serif" font-size="13" lengthAdjust="spacing" textLength="7" x="252.5895" y="721.0693">*</text></g><!--MD5=[784b00dc24d87caf7480884d2ee5bb2d]
reverse link Nivel to Suelo--><g id="link_Nivel_Suelo"><path codeLine="178" d="M746.2758,301.4769 C737.1638,390.6169 725.6128,503.5969 718.5158,573.0069 " fill="none" id="Nivel-backto-Suelo" style="stroke:#181818;stroke-width:1.0;"/><polygon fill="#181818" points="747.6018,288.5069,743.0096,294.0667,746.3755,300.4441,750.9677,294.8842,747.6018,288.5069" style="stroke:#181818;stroke-width:1.0;"/><text fill="#000000" font-family="sans-serif" font-size="13" lengthAdjust="spacing" textLength="7" x="735.4517" y="308.0891">*</text><text fill="#000000" font-family="sans-serif" font-size="13" lengthAdjust="spacing" textLength="7" x="707.4087" y="562.1478">*</text></g><!--MD5=[550c150806e343b38a76e6a9fbd7ad8b]
reverse link Nivel to Soporte--><g id="link_Nivel_Soporte"><path codeLine="179" d="M643.9658,184.1369 C532.7598,206.3869 368.0348,256.3669 271.9948,365.2969 C157.6561,494.9869 172.0756,561.8669 142.9946,732.2969 C104.0467,960.5539 6,1066.6139 142.9946,1253.2969 C196.4678,1326.1659 258.5898,1269.3299 336.9948,1314.2969 C370.5298,1333.5309 402.6898,1363.1449 425.8508,1387.1609 " fill="none" id="Nivel-backto-Soporte" style="stroke:#181818;stroke-width:1.0;"/><polygon fill="#181818" points="656.9158,181.6269,650.263,178.8446,645.1361,183.9155,651.7888,186.6978,656.9158,181.6269" style="stroke:#181818;stroke-width:1.0;"/><text fill="#000000" font-family="sans-serif" font-size="13" lengthAdjust="spacing" textLength="7" x="638.1407" y="179.2644">*</text><text fill="#000000" font-family="sans-serif" font-size="13" lengthAdjust="spacing" textLength="7" x="407.7879" y="1376.2999">*</text></g><!--MD5=[22c02c20e674dc9817647bce93dd0178]
reverse link Nivel to YCamaraGrupo--><g id="link_Nivel_YCamaraGrupo"><path codeLine="180" d="M876.0978,184.3369 C1035.0498,210.2569 1327.2228,267.2369 1559.9928,365.2969 C1565.8728,367.7769 1571.7928,370.4769 1577.7028,373.3469 " fill="none" id="Nivel-backto-YCamaraGrupo" style="stroke:#181818;stroke-width:1.0;"/><polygon fill="#181818" points="863.0128,182.2269,868.2985,187.1322,874.8594,184.1397,869.5737,179.2345,863.0128,182.2269" style="stroke:#181818;stroke-width:1.0;"/><text fill="#000000" font-family="sans-serif" font-size="13" lengthAdjust="spacing" textLength="60" x="1476.9928" y="331.3638">compone</text><text fill="#000000" font-family="sans-serif" font-size="13" lengthAdjust="spacing" textLength="7" x="875.129" y="179.9338">*</text></g><!--MD5=[fa4464d31b26dbeeba6f57c4b7fb9416]
link Suelo to Ajustes--><g id="link_Suelo_Ajustes"><path codeLine="181" d="M713.2456,714.6132 C713.2456,714.6132 720.1958,1135.9089 722.9178,1300.8899 " fill="none" id="Suelo-Ajustes" style="stroke:#181818;stroke-width:1.0;"/><polygon fill="#181818" points="713.0478,702.6149,709.1472,708.68,713.2456,714.6132,717.1462,708.5481,713.0478,702.6149" style="stroke:#181818;stroke-width:1.0;"/><polygon fill="#181818" points="723.1338,1314.0249,726.9849,1304.9602,723.0514,1309.0256,718.986,1305.092,723.1338,1314.0249" style="stroke:#181818;stroke-width:1.0;"/><line style="stroke:#181818;stroke-width:1.0;" x1="723.0514" x2="722.9193" y1="1309.0256" y2="1301.0269"/><text fill="#000000" font-family="sans-serif" font-size="13" lengthAdjust="spacing" textLength="7" x="701.3024" y="723.0232">*</text><text fill="#000000" font-family="sans-serif" font-size="13" lengthAdjust="spacing" textLength="8" x="710.5021" y="1303.3185">1</text></g><!--MD5=[34fb766eb8f051770d79f9d9f7f74dbb]
@startuml
Title Diagrama UML de Quimbamba
class Ajustes #lightgreen;line:darkgreen{
Largo:int
Ancho:int
FPS:int
TILESIZE:int
alturavida:int
anchovida:int
anchobarraenergia:int
tamañocorazon:int
ubicacion:str
tamañofuente:int
WORLD_MAP:str
}

class Armas #lightgreen;line:darkgreen{
jugador:int
image:str
grupos:float
}

class Debug #lightgreen;line:darkgreen{
font:str
debug(info,y:int,x:int)
}

class Enemigos #lightgreen;line:darkgreen{
nombremoustro:
pos:float
grupos:float
obstaculos:str
estado:int
image:str
rect:int
hitbox:int
nombremoustro:str
moustroinfo:str
vida:int
xp:int
velocidad:int
daño:int
resistencia:int
radioataque:int
deteccion:int
tipo:int
puedeatacar:Boolean
tiempoataque:int
esperaataque:int
importargraficos(name:str)
get_player_distance_direction(player)
tomarestado(jugador:int)
acciones(jugador:int)
animacion()
esperaataques()
update()
actualizacionenemigos(jugador:int)
}

class Entidad #lightgreen;line:darkgreen{
grupos:float
framesi:int
animacionv:float
direccion:int
move(velovidad:int)
colision(direccion:int)
}

class Estadisticas #lightgreen;line:darkgreen{
mostrars:str
font:(str,int)
tamañobarravida:int
tamañobarraenergia:int
mostrarbarra(actual:int, maximo:int, cuadrotrasero:int, color:str)
mostrarexperiencia(xp:int)
display(jugador:int)
}

class Magia #lightgreen;line:darkgreen{
jugador:int
grupos:float
image:str
}

class Jugador #lightgreen;line:darkgreen{
pos:float
grupos:float
obstaculos:str
image:str
rect:int
hitbox:int
estado:int
animaciondent:int
velocidadanimacion:float
direccion:int
velocidad:int
ataque: boolean
ataqueesp:int
sw:int
atacar:str
magia:str
estadisticas:int
vida:float
energia:float
xp:int
velocidad:int
animaciones()
input()
estados()
move(velocidad:int)
espera()
secuencia()
colicion(direccion:int )
update()
}
        
class Main #lightgreen;line:darkgreen{
pantalla:str
frames:float
run()
}

class Nivel #lightgreen;line:darkgreen{
mostrars:str
spritev:str
obstaculos: str
ataqueactual:int
spritesataque:str
spritesataqueenemigos:str
stats:int
crearmapa()
atacar()
magia()
logicaataquesp()
run()

}

class YCamaraGrupo #lightgreen;line:darkgreen{
mostrars:int
mitadancho:int
mitadlargo:int
offset:int
suelo_superficie: str
suelo_rect:int
custom_draw(jugador:int)
actualizacionenemigo(jugdor:int)
}

class Soporte #lightgreen;line:darkgreen{
import_csv_layout(path:str)
import_folder(path:str)
}

class Suelo #lightgreen;line:darkgreen{
pos:int
grupos:float
sprite_type:str
surface:str
image:int
}

Ajustes " 1 " <- -* "    1 " Main
Nivel- -* " 1 "Main
Debug " * "- - "       1   "Main
Jugador " * " - -> " 1 " Ajustes
Jugador " * " *- - " * "Soporte
Magia" * "- -* " * "Jugador
Armas" * "- -* " * "Jugador
Enemigos " * "- -> " 1 "Ajustes
Enemigos " * " *- - " * " Soporte
Enemigos " * " *- - " * " Entidad
Nivel " * "- -> " 1 "Ajustes
Nivel " * "- -* " * "Jugador
Nivel " * "- - " * "Debug
Nivel " * "- - " * " Estadisticas
Nivel " * "- - " * "Magia
Nivel " * "- - " * "Enemigos
Nivel " * "*- - " * "Suelo
Nivel " * " *- - " * " Soporte
Nivel " * " *- - YCamaraGrupo: compone
Suelo " * " *- -> " 1 " Ajustes
@enduml

PlantUML version 1.2022.14beta1(Unknown compile time)
(GPL source distribution)
Java Runtime: Java(TM) SE Runtime Environment
JVM: Java HotSpot(TM) 64-Bit Server VM
Default Encoding: UTF-8
Language: en
Country: US
--></g></svg>